<?xml version="1.0" encoding="UTF-8" standalone="no"?>
<svg width="64px" height="54px" viewBox="0 0 64 54" version="1.1" xmlns="http://www.w3.org/2000/svg" xmlns:xlink="http://www.w3.org/1999/xlink" xmlns:sketch="http://www.bohemiancoding.com/sketch/ns">
    <!-- Generator: Sketch 3.3.3 (12072) - http://www.bohemiancoding.com/sketch -->
    <title>icon-2015</title>
    <desc>Created with Sketch.</desc>
    <defs></defs>
    <g id="Page-1" stroke="none" stroke-width="1" fill="none" fill-rule="evenodd" sketch:type="MSPage">
        <g id="Home" sketch:type="MSArtboardGroup" transform="translate(-281.000000, -296.000000)">
            <g id="Intro" sketch:type="MSLayerGroup" transform="translate(-216.000000, 296.000000)">
                <g id="icon-2015" transform="translate(497.000000, 0.000000)" sketch:type="MSShapeGroup">
                    <rect id="Rectangle-2-Copy" stroke="#FC1F70" stroke-width="2" fill="#F2F1F1" x="5" y="6" width="37" height="48"></rect>
                    <rect id="Rectangle-2" stroke="#FC1F70" stroke-width="2" fill="#F2F1F1" x="0" y="0" width="37" height="48"></rect>
                    <path d="M1.5,46.5 L35.5,1.5" id="Line" stroke="#FC1F70" stroke-linecap="square"></path>
                    <path d="M-0.872,12.576 C-0.632,12.016 -0.272,11.584 0.336,11.584 C1.048,11.584 1.376,12.168 1.376,12.608 C1.376,13.064 1.024,13.48 0.56,13.92 L-1.232,15.6 L-1.232,16 L1.776,16 L1.776,14.776 L1.44,14.776 L1.44,15.68 L-0.816,15.68 L0.768,14.192 C1.368,13.624 1.76,13.176 1.76,12.6 C1.76,11.912 1.208,11.248 0.336,11.248 C-0.408,11.248 -0.912,11.72 -1.208,12.432 L-0.872,12.576 Z M3.248,13.68 C3.248,15.136 3.952,16.112 4.96,16.112 C5.968,16.112 6.672,15.136 6.672,13.68 C6.672,12.224 5.968,11.248 4.96,11.248 C3.952,11.248 3.248,12.224 3.248,13.68 L3.248,13.68 Z M3.632,13.68 C3.632,12.528 4.096,11.584 4.96,11.584 C5.408,11.584 5.744,11.84 5.968,12.248 L3.832,14.872 C3.704,14.536 3.632,14.128 3.632,13.68 L3.632,13.68 Z M6.288,13.68 C6.288,14.832 5.824,15.776 4.96,15.776 C4.536,15.776 4.216,15.552 3.992,15.192 L6.12,12.584 C6.232,12.904 6.288,13.28 6.288,13.68 L6.288,13.68 Z M8.416,12.688 L9.496,11.792 L9.496,15.68 L8.056,15.68 L8.056,16 L11.2,16 L11.2,15.68 L9.84,15.68 L9.84,11.36 L9.496,11.36 L8.208,12.432 L8.416,12.688 Z M15.496,11.36 L13.144,11.36 L13.04,13.784 L13.44,13.784 C13.64,13.6 13.92,13.44 14.312,13.44 C14.96,13.44 15.36,13.992 15.36,14.576 C15.36,15.104 15.04,15.776 14.224,15.776 C13.728,15.776 13.304,15.528 13.024,15.128 L12.744,15.344 C13.072,15.816 13.616,16.112 14.232,16.112 C15.176,16.112 15.744,15.392 15.744,14.576 C15.744,13.688 15.064,13.104 14.312,13.104 C13.904,13.104 13.584,13.256 13.392,13.432 L13.472,11.68 L15.496,11.68 L15.496,11.36 Z" id="2015" fill="#FC1F70" transform="translate(7.664000, 13.680000) rotate(-90.000000) translate(-7.664000, -13.680000) "></path>
                    <path d="M51.47,23.566 L50.938,24.644 L54.942,26.968 L50.938,29.32 L51.47,30.384 L57.28,26.968 L51.47,23.566 Z M57.9519999,31.7 L57.9519999,32.89 L63.6079999,32.89 L63.6079999,31.7 L57.9519999,31.7 Z" id="&gt;_" fill="#FC1F70"></path>
                </g>
            </g>
        </g>
    </g>
</svg>