<?xml version="1.0" encoding="utf-8"?>
<!-- Generator: Adobe Illustrator 16.0.0, SVG Export Plug-In . SVG Version: 6.00 Build 0)  -->
<!DOCTYPE svg PUBLIC "-//W3C//DTD SVG 1.1//EN" "http://www.w3.org/Graphics/SVG/1.1/DTD/svg11.dtd">
<svg version="1.1" id="Layer_1" xmlns="http://www.w3.org/2000/svg" xmlns:xlink="http://www.w3.org/1999/xlink" x="0px" y="0px"
	 width="131px" height="167px" viewBox="0 0 131 167" enable-background="new 0 0 131 167" xml:space="preserve">
<g>
	<g>
		<defs>
			<path id="SVGID_1_" d="M17.963,15.544v1.521h13.832v-1.521H17.963L17.963,15.544z M16.547,27.418v1.521h16.665v-1.521H16.547
				L16.547,27.418z M17.651,38.669v1.521h12.623v10.374H17.401v1.521h14.498V38.669H17.651L17.651,38.669z M19.401,60.272v1.5
				h11.332v-1.5H19.401L19.401,60.272z M17.714,64.855v1.521h12.998c-0.792,2.166-1.896,3.938-3.333,5.312
				c-1.666,1.583-3.895,2.708-6.645,3.375l0.833,1.438c3.125-0.75,5.624-2.125,7.458-4.083c1.542-1.667,2.75-3.958,3.666-6.854
				l-0.917-0.708H17.714L17.714,64.855z M17.714,64.855"/>
		</defs>
		<clipPath id="SVGID_2_">
			<use xlink:href="#SVGID_1_"  overflow="visible"/>
		</clipPath>
		<rect x="14.58" y="13.577" clip-path="url(#SVGID_2_)" fill="#FC1D6F" width="20.599" height="64.89"/>
	</g>
	<polygon fill="none" points="18,149 18,165 129,165 129,20 115,20 115,149 	"/>
	<path fill="#FC1D6F" d="M115,18V0H0v149h16v18h115V18H115z M111.807,2L2,145.479V2H111.807z M3.328,147L113,3.063v14.841v1.967V147
		H17.703h-1.967H3.328z M129,165H18v-16h97V20h14V165z"/>
</g>
</svg>
