<?xml version="1.0" encoding="UTF-8" standalone="no"?>
<!DOCTYPE svg  PUBLIC '-//W3C//DTD SVG 1.1//EN'  'http://www.w3.org/Graphics/SVG/1.1/DTD/svg11.dtd'>
<svg xmlns="http://www.w3.org/2000/svg">
<defs>
<font id="bt_mono-Bold" horiz-adv-x="580">
<font-face underline-position="-30" font-weight="665" descent="-200" panose-1="2 0 0 9 0 0 0 0 0 0" units-per-em="1000" unicode-range="U+0020-25CA" bbox="2 -240 576 845" x-height="426" underline-thickness="70" font-family="bt_mono" ascent="800" cap-height="580"/>
<missing-glyph d="M33 0v666h265v-666h-265zM66 33h199v600h-199v-600z"/>
<glyph glyph-name=".notdef" d="M33 0v666h265v-666h-265zM66 33h199v600h-199v-600z"/>
<glyph glyph-name=".null" horiz-adv-x="0"/>
<glyph glyph-name="nonmarkingreturn"/>
<glyph glyph-name="space" unicode=" "/>
<glyph glyph-name="exclam" d="M226 616h128l-30 -407h-68zM210 64q0 34 22.5 56t57.5 22t57.5 -22t22.5 -56t-22.5 -55.5t-57.5 -21.5t-57.5 21.5t-22.5 55.5z" unicode="!"/>
<glyph glyph-name="quotedbl" d="M121 616h136l-28 -254h-80zM323 616h136l-28 -254h-80z" unicode='&quot;'/>
<glyph glyph-name="numbersign" d="M244 347l-21 -106h111l21 106h-111zM65 347l16 84h87l29 149h92l-29 -149h111l29 149h92l-29 -149h87l-16 -84h-87l-21 -106h89l-16 -84h-89l-30 -157h-92l30 157h-111l-30 -157h-92l30 157h-85l16 84h85l21 106h-87z" unicode="#"/>
<glyph glyph-name="dollar" d="M176 432q0 -53 78 -77v147q-78 -11 -78 -70zM415 161q0 33 -19.5 51.5t-62.5 31.5v-166q82 13 82 83zM333 -96h-79v96q-54 12 -88 49v-41h-83v181h77q6 -88 94 -108v182q-76 20 -122 58t-46 109q0 69 49 108t119 46v86h79v-91q46 -14 73 -45v36h83v-173h-76 q-4 82 -80 101v-164q84 -23 128 -59.5t44 -111.5q0 -74 -48.5 -118t-123.5 -50v-91z" unicode="$"/>
<glyph glyph-name="percent" d="M366 118q0 -25 17.5 -43t40.5 -18t40.5 18t17.5 43t-17.5 43t-40.5 18t-40.5 -18t-17.5 -43zM291 118q0 57 38.5 95t94.5 38t94.5 -38t38.5 -95t-38.5 -95t-94.5 -38t-94.5 38t-38.5 95zM98 461q0 -25 17.5 -43t40.5 -18t40.5 18t17.5 43t-17.5 43t-40.5 18t-40.5 -18 t-17.5 -43zM23 461q0 57 38.5 95t94.5 38t94.5 -38t38.5 -95t-38.5 -95t-94.5 -38t-94.5 38t-38.5 95zM534 554l-436 -572l-52 43l436 572z" unicode="%"/>
<glyph glyph-name="ampersand" d="M178 453q0 -39 27 -72l19 -24q70 37 70 94q0 27 -15.5 44t-38.5 17q-27 0 -44.5 -16.5t-17.5 -42.5zM230 72q54 0 91 27l-124 152q-40 -21 -59.5 -43t-19.5 -53q0 -38 28.5 -60.5t83.5 -22.5zM362 228v82h177v-82h-48q-14 -83 -54 -133l8 -10h114v-85h-157l-27 33 q-70 -47 -159 -47q-84 0 -138.5 44.5t-54.5 122.5q0 57 31 94.5t90 69.5l-13 16q-45 56 -45 119t42.5 102.5t109.5 39.5q62 0 105 -39t43 -104q0 -97 -109 -159l103 -128q19 31 24 64h-42z" unicode="&amp;"/>
<glyph glyph-name="quotesingle" d="M222 616h136l-28 -254h-80z" unicode="&apos;"/>
<glyph glyph-name="parenleft" d="M168 259q0 228 195 405l60 -64q-163 -156 -163 -341t163 -341l-60 -64q-195 177 -195 405z" unicode="("/>
<glyph glyph-name="parenright" d="M412 259q0 -228 -195 -405l-60 64q163 156 163 341t-163 341l60 64q195 -177 195 -405z" unicode=")"/>
<glyph glyph-name="asterisk" d="M252 529v127h77v-127l121 40l24 -73l-122 -40l75 -103l-62 -46l-75 103l-75 -103l-62 46l75 103l-121 40l24 73z" unicode="*"/>
<glyph glyph-name="plus" d="M247 490h85v-172h174v-85h-174v-174h-85v174h-173v85h173v172z" unicode="+"/>
<glyph glyph-name="comma" d="M229 102h170l-116 -278h-102z" unicode=","/>
<glyph glyph-name="hyphen" d="M441 319v-98h-302v98h302z" unicode="-"/>
<glyph glyph-name="period" d="M196 78q0 40 26.5 66t67.5 26t67.5 -26t26.5 -66t-26.5 -65.5t-67.5 -25.5t-67.5 25.5t-26.5 65.5z" unicode="."/>
<glyph glyph-name="slash" d="M515 640l-373 -761l-78 38l373 762z" unicode="/"/>
<glyph glyph-name="zero" d="M419 290q0 45 -7 80l-207 -253q33 -44 85 -44q62 0 95.5 61t33.5 156zM161 290q0 -49 9 -91l209 256q-34 52 -89 52q-63 0 -96 -61t-33 -156zM65 290q0 138 61 221t164 83t164 -83.5t61 -220.5t-61 -220.5t-164 -83.5t-164 83t-61 221z" unicode="0"/>
<glyph glyph-name="one" d="M147 374l-53 68l156 138h96v-495h162v-85h-430v85h178v386z" unicode="1"/>
<glyph glyph-name="two" d="M162 408l-82 38q68 148 212 148q86 0 140 -51.5t54 -122.5q0 -51 -30.5 -94.5t-100.5 -104.5l-158 -136h208v79h83v-164h-406v99l209 180q99 86 99 143q0 33 -26.5 59.5t-71.5 26.5t-75 -26.5t-55 -73.5z" unicode="2"/>
<glyph glyph-name="three" d="M233 261l-59 76l180 158h-241v85h343v-98l-163 -138l1 -1q10 3 21 3q71 0 123.5 -48.5t52.5 -122.5q0 -78 -57.5 -133.5t-150.5 -55.5q-124 0 -196 96l68 59q53 -69 128 -69q50 0 81.5 30.5t31.5 74.5q0 42 -29.5 70t-76.5 28q-34 0 -57 -14z" unicode="3"/>
<glyph glyph-name="four" d="M163 234h177v241zM72 246l245 334h110v-346h63v-82h-63v-67h63v-85h-242v85h92v67h-268v94z" unicode="4"/>
<glyph glyph-name="five" d="M461 580v-85h-242l-9 -162q38 33 90 33q83 0 136.5 -54.5t53.5 -131.5q0 -79 -57 -136.5t-151 -57.5q-124 0 -195 94l68 59q53 -67 127 -67q51 0 82 31.5t31 77.5q0 43 -27.5 72t-71.5 29q-48 0 -76 -30h-100l15 328h326z" unicode="5"/>
<glyph glyph-name="six" d="M492 519l-66 -57q-33 47 -91 47q-70 0 -117.5 -67.5t-47.5 -161.5v-10q10 36 50.5 67t96.5 31q83 0 139 -54t56 -137q0 -80 -55 -135.5t-146 -55.5q-114 0 -172 81t-58 210q0 139 74 228t180 89q48 0 90 -21t67 -54zM197 178q0 -46 32 -77t82 -31q48 0 77.5 31t29.5 76 t-30.5 76t-78.5 31t-77.5 -30t-34.5 -76z" unicode="6"/>
<glyph glyph-name="seven" d="M304 0h-100l196 495h-230v-69h-88v154h413v-92z" unicode="7"/>
<glyph glyph-name="eight" d="M290 510q-48 0 -74.5 -23t-26.5 -60t27.5 -60.5t73.5 -23.5t73.5 23.5t27.5 60.5t-26.5 60t-74.5 23zM290 257q-53 0 -84.5 -27t-31.5 -67q0 -41 31 -67t85 -26t85 26t31 67q0 40 -31.5 67t-84.5 27zM96 431q0 69 52 116t142 47t142 -47t52 -116q0 -93 -84 -130 q48 -19 74 -56.5t26 -85.5q0 -73 -56.5 -123t-153.5 -50t-153.5 50t-56.5 123q0 48 26 85.5t74 56.5q-84 37 -84 130z" unicode="8"/>
<glyph glyph-name="nine" d="M80 69l66 57q40 -55 100 -55q69 0 116.5 67.5t47.5 161.5v10q-10 -36 -50.5 -67t-96.5 -31q-83 0 -139 54t-56 137q0 80 55 135.5t146 55.5q114 0 172 -81t58 -210q0 -138 -73.5 -227.5t-179.5 -89.5q-107 0 -166 83zM383 402q0 46 -32 77t-82 31q-48 0 -77.5 -31 t-29.5 -76t30.5 -76t78.5 -31t77.5 30t34.5 76z" unicode="9"/>
<glyph glyph-name="colon" d="M196 342q0 40 26.5 66t67.5 26t67.5 -26t26.5 -66t-26.5 -65.5t-67.5 -25.5t-67.5 25.5t-26.5 65.5zM196 78q0 40 26.5 66t67.5 26t67.5 -26t26.5 -66t-26.5 -65.5t-67.5 -25.5t-67.5 25.5t-26.5 65.5z" unicode=":"/>
<glyph glyph-name="semicolon" d="M214 102h170l-116 -278h-102zM204 342q0 40 26.5 66t67.5 26t67.5 -26t26.5 -66t-26.5 -65.5t-67.5 -25.5t-67.5 25.5t-26.5 65.5z" unicode=";"/>
<glyph glyph-name="less" d="M475 44l-415 243l415 244l38 -76l-286 -168l286 -166z" unicode="&lt;"/>
<glyph glyph-name="equal" d="M68 405h444v-85h-444v85zM68 230h444v-85h-444v85z" unicode="="/>
<glyph glyph-name="greater" d="M105 531l415 -243l-415 -244l-38 76l286 168l-286 166z" unicode="&gt;"/>
<glyph glyph-name="question" d="M290 -13q-32 0 -53 20.5t-21 52.5q0 31 21 52t53 21t53 -21t21 -52q0 -32 -21 -52.5t-53 -20.5zM281 597q93 0 149 -51t56 -124q0 -67 -44 -111.5t-110 -68.5v-63h-88v114q64 14 105.5 48t41.5 81q0 38 -30 63.5t-80 25.5q-76 0 -130 -85l-76 48q30 53 82 88t124 35z" unicode="?"/>
<glyph glyph-name="at" d="M415 312v17q-21 12 -58 12q-31 0 -51.5 -15t-20.5 -44q0 -26 14 -40.5t36 -14.5q31 0 55.5 22.5t24.5 62.5zM285 -43q-109 0 -170 67t-61 175v187q0 107 62 175.5t167 68.5q100 0 158.5 -63t58.5 -150v-180h50v-81h-133v42q-25 -50 -97 -50q-49 0 -84 35t-35 93 q0 72 45 106.5t109 34.5q31 0 60 -12v16q0 53 -34 90.5t-98 37.5q-66 0 -103.5 -46t-37.5 -118v-185q0 -71 38 -116.5t105 -45.5q66 0 122 54l61 -55q-67 -80 -183 -80z" unicode="@"/>
<glyph glyph-name="A" d="M288 494l-75 -236h150zM346 85h72l-28 89h-204l-29 -89h74v-85h-217v85h51l162 495h126l161 -495h52v-85h-220v85z" unicode="A"/>
<glyph glyph-name="B" d="M194 495v-158h100q114 0 114 79t-115 79h-99zM194 255v-170h114q132 0 132 85t-139 85h-107zM501 424q0 -90 -86 -124q53 -15 85.5 -50.5t32.5 -84.5q0 -79 -57.5 -122t-158.5 -43h-282v85h67v410h-67v85h268q93 0 145.5 -41t52.5 -115z" unicode="B"/>
<glyph glyph-name="C" d="M303 594q45 0 83.5 -20t54.5 -49v55h86v-214h-79q-6 61 -46.5 101t-96.5 40q-76 0 -119 -62t-43 -155q0 -94 43.5 -155.5t122.5 -61.5q52 0 86.5 27t62.5 74l78 -47q-29 -59 -88.5 -100t-138.5 -41q-117 0 -189.5 84t-72.5 220t71.5 220t184.5 84z" unicode="C"/>
<glyph glyph-name="D" d="M250 495h-59v-410h59q98 0 151.5 54.5t53.5 150.5q0 94 -54 149.5t-151 55.5zM250 580q144 0 222.5 -79t78.5 -211t-78.5 -211t-222.5 -79h-213v85h62v410h-62v85h213z" unicode="D"/>
<glyph glyph-name="E" d="M366 394v-204h-84v61h-82v-166h248v92h88v-177h-495v85h67v410h-67v85h489v-191h-88v106h-242v-162h82v61h84z" unicode="E"/>
<glyph glyph-name="F" d="M389 394v-204h-84v61h-102v-166h147v-85h-306v85h67v410h-67v85h504v-191h-88v106h-257v-162h102v61h84z" unicode="F"/>
<glyph glyph-name="G" d="M285 507q-75 0 -117 -62t-42 -155q0 -94 40.5 -155.5t114.5 -61.5q56 0 97.5 42t41.5 99v3h-106v85h241v-85h-47v-217h-88v61q-16 -34 -55.5 -54.5t-86.5 -20.5q-111 0 -179.5 84t-68.5 220t71 220t183 84q44 0 82 -18.5t54 -44.5v49h86v-202h-79q-6 56 -46 92.5 t-96 36.5z" unicode="G"/>
<glyph glyph-name="H" d="M23 580h225v-85h-71v-156h226v156h-71v85h225v-85h-62v-410h62v-85h-225v85h71v169h-226v-169h71v-85h-225v85h62v410h-62v85z" unicode="H"/>
<glyph glyph-name="I" d="M88 580h404v-85h-155v-410h155v-85h-404v85h155v410h-155v85z" unicode="I"/>
<glyph glyph-name="J" d="M172 495v85h321v-380q0 -98 -62 -156t-150 -58q-82 0 -140.5 46.5t-71.5 129.5l89 18q9 -51 42 -79.5t81 -28.5q49 0 84 36t35 96v291h-228z" unicode="J"/>
<glyph glyph-name="K" d="M329 85h65l-124 192l-93 -91v-101h66v-85h-220v85h62v410h-62v85h220v-85h-66v-192l195 192h-55v85h225v-85h-50l-157 -155l166 -255h58v-85h-230v85z" unicode="K"/>
<glyph glyph-name="L" d="M42 0v85h79v410h-79v85h268v-85h-97v-410h231v104h88v-189h-490z" unicode="L"/>
<glyph glyph-name="M" d="M329 187h-78l-105 234v-336h75v-85h-208v85h46v410h-46v85h150l128 -293l128 293h148v-85h-46v-410h46v-85h-208v85h75v336z" unicode="M"/>
<glyph glyph-name="N" d="M498 0h-103l-221 429v-344h78v-85h-220v85h54v410h-54v85h161l217 -427v342h-78v85h220v-85h-54v-495z" unicode="N"/>
<glyph glyph-name="O" d="M449 290q0 93 -42 155t-117 62t-117 -62t-42 -155q0 -94 42 -155.5t117 -61.5t117 61.5t42 155.5zM35 290q0 136 71 220t184 84t184 -84t71 -220t-71 -220t-184 -84t-184 84t-71 220z" unicode="O"/>
<glyph glyph-name="P" d="M209 495v-173h108q130 0 130 87q0 86 -130 86h-108zM209 237v-152h151v-85h-313v85h70v410h-70v85h283q100 0 155.5 -43t55.5 -127q0 -86 -57 -129.5t-154 -43.5h-121z" unicode="P"/>
<glyph glyph-name="Q" d="M449 290q0 93 -42 155t-117 62t-117 -62t-42 -155q0 -94 42 -155.5t117 -61.5q22 0 42 6q-11 59 -47 59q-19 0 -41 -16l-32 65q30 25 77 25q76 0 109 -89q51 62 51 167zM502 -5l32 -64q-30 -24 -78 -24q-39 0 -66.5 24t-41.5 62q-27 -7 -58 -7q-113 0 -184 84t-71 220 t71 220t184 84t184 -84t71 -220q0 -92 -34 -162.5t-94 -106.5q11 -42 41 -42q22 0 44 16z" unicode="Q"/>
<glyph glyph-name="R" d="M175 495v-168h103q128 0 128 84t-128 84h-103zM414 0l-142 242h-97v-157h85v-85h-242v85h65v410h-65v85h273q97 0 153 -43t56 -126q0 -127 -129 -160l100 -166h92v-85h-149z" unicode="R"/>
<glyph glyph-name="S" d="M424 153q0 42 -33 62t-107 39q-48 12 -79 23.5t-63.5 32t-48.5 52.5t-16 76q0 79 53.5 117.5t127.5 38.5q100 0 143 -62v48h86v-199h-79q-6 50 -44 88.5t-103 38.5q-39 0 -66 -15.5t-27 -50.5q0 -23 10.5 -40t34.5 -29t43.5 -18.5t55.5 -16.5q33 -9 49 -14t45 -16t44 -23 t32.5 -30t25 -43t7.5 -56q0 -81 -53.5 -125.5t-138.5 -44.5q-57 0 -100.5 19t-64.5 48v-53h-86v212h79q5 -56 51 -98t115 -42q47 0 77 20t30 61z" unicode="S"/>
<glyph glyph-name="T" d="M538 391h-88v104h-114v-410h122v-85h-336v85h122v410h-114v-104h-88v189h496v-189z" unicode="T"/>
<glyph glyph-name="U" d="M10 495v85h225v-85h-71v-301q0 -56 36.5 -89t89.5 -33t89.5 33t36.5 89v301h-71v85h225v-85h-62v-304q0 -94 -63.5 -149.5t-154.5 -55.5t-154.5 55.5t-63.5 149.5v304h-62z" unicode="U"/>
<glyph glyph-name="V" d="M292 100l124 395h-67v85h217v-85h-58l-157 -495h-122l-158 495h-57v85h220v-85h-65z" unicode="V"/>
<glyph glyph-name="W" d="M482 0h-102l-90 297l-90 -297h-102l-51 495h-38v85h201v-85h-69l32 -333l74 247h88l73 -247l32 333h-70v85h201v-85h-39z" unicode="W"/>
<glyph glyph-name="X" d="M230 0h-215v85h40l176 212l-165 198h-40v85h211v-85h-52l106 -128l105 128h-51v85h208v-85h-40l-164 -198l175 -212h40v-85h-218v85h60l-117 142l-117 -142h58v-85z" unicode="X"/>
<glyph glyph-name="Y" d="M345 580h218v-85h-49l-178 -266v-144h123v-85h-338v85h123v144l-178 266h-49v85h218v-85h-59l116 -179l116 179h-63v85z" unicode="Y"/>
<glyph glyph-name="Z" d="M515 0h-450v101l331 394h-222v-94h-88v179h413v-100l-333 -395h261v103h88v-188z" unicode="Z"/>
<glyph glyph-name="bracketleft" d="M422 572h-159v-625h159v-85h-247v795h247v-85z" unicode="["/>
<glyph glyph-name="backslash" d="M438 -121l-373 761l78 39l373 -762z" unicode="\"/>
<glyph glyph-name="bracketright" d="M317 572h-159v85h247v-795h-247v85h159v625z" unicode="]"/>
<glyph glyph-name="asciicircum" d="M103 386l187 221l187 -221l-65 -55l-122 143l-122 -143z" unicode="^"/>
<glyph glyph-name="underscore" d="M88 -50h404v-85h-404v85z" unicode="_"/>
<glyph glyph-name="grave" d="M171 597l66 94l172 -145l-46 -65z" unicode="`"/>
<glyph glyph-name="a" d="M375 160v12q-50 18 -109 18q-47 0 -78.5 -16.5t-31.5 -52.5q0 -28 22 -42t59 -14q53 0 95.5 26t42.5 69zM465 275v-190h62v-85h-152v45q-17 -27 -58 -43t-88 -16q-70 0 -117 35t-47 99q0 73 58.5 109t138.5 36q51 0 113 -17v24q0 42 -28.5 63.5t-71.5 21.5 q-69 0 -125 -51l-58 63q77 71 183 71q83 0 136.5 -43.5t53.5 -121.5z" unicode="a"/>
<glyph glyph-name="b" d="M451 213q0 62 -38.5 103t-97.5 41t-99.5 -39t-40.5 -99v-12q0 -60 40.5 -99t99.5 -39t97.5 41t38.5 103zM26 0v85h61v446h-61v85h149v-242q53 66 152 66q93 0 154 -64t61 -163t-61 -163t-154 -64q-99 0 -152 66v-52h-149z" unicode="b"/>
<glyph glyph-name="c" d="M510 258h-73q-6 42 -42.5 70t-91.5 28q-63 0 -104.5 -40.5t-41.5 -99.5q0 -65 43 -105.5t108 -40.5q93 0 154 68l60 -61q-35 -41 -92 -66t-122 -25q-108 0 -176 64.5t-68 165.5q0 95 67.5 159.5t167.5 64.5q46 0 79.5 -16.5t48.5 -38.5v41h83v-168z" unicode="c"/>
<glyph glyph-name="d" d="M129 213q0 -62 38.5 -103t97.5 -41t99.5 39t40.5 99v12q0 60 -40.5 99t-99.5 39t-97.5 -41t-38.5 -103zM405 531h-60v85h148v-531h61v-85h-149v52q-53 -66 -152 -66q-93 0 -154 64t-61 163t61 163t154 64q99 0 152 -66v157z" unicode="d"/>
<glyph glyph-name="e" d="M455 127l59 -62q-34 -36 -89.5 -57.5t-119.5 -21.5q-107 0 -175 64t-68 163q0 98 65.5 162.5t166.5 64.5q100 0 164 -69t64 -174v-15h-367q11 -53 52 -83.5t99 -30.5q95 0 149 59zM159 257h262q-10 45 -45.5 73.5t-81.5 28.5q-50 0 -87 -28t-48 -74z" unicode="e"/>
<glyph glyph-name="f" d="M445 426v-85h-165v-256h153v-85h-332v85h91v256h-91v85h91v17q0 90 53.5 138.5t137.5 48.5q107 0 169 -80l-61 -56q-49 54 -107 54q-45 0 -74.5 -25t-29.5 -80v-17h165z" unicode="f"/>
<glyph glyph-name="g" d="M129 216q0 -61 38.5 -101t97.5 -40t99.5 38t40.5 97v12q0 59 -40.5 97t-99.5 38t-97.5 -40t-38.5 -101zM76 -128l59 64q68 -57 135 -57q57 0 96 29.5t39 86.5v63q-53 -66 -152 -66q-93 0 -154 63t-61 161q0 97 61 160.5t154 63.5q99 0 152 -66v52h149v-85h-61v-344 q0 -97 -60.5 -148t-162.5 -51q-116 0 -194 74z" unicode="g"/>
<glyph glyph-name="h" d="M34 0v85h65v446h-61v85h148v-245q20 32 58.5 50.5t87.5 18.5q72 0 117.5 -42.5t45.5 -114.5v-198h65v-85h-221v85h68v174q0 51 -25 73t-61 22q-53 0 -93.5 -36t-40.5 -91v-142h68v-85h-221z" unicode="h"/>
<glyph glyph-name="i" d="M344 641v-130h-99v130h99zM344 85h164v-85h-430v85h178v256h-136v85h224v-341z" unicode="i"/>
<glyph glyph-name="j" d="M350 511v130h99v-130h-99zM159 341v85h290v-434q0 -85 -59 -139.5t-142 -54.5q-74 0 -127.5 40.5t-68.5 111.5l84 22q10 -43 40.5 -68t71.5 -25q46 0 79.5 33.5t33.5 84.5v344h-202z" unicode="j"/>
<glyph glyph-name="k" d="M43 0v85h58v446h-58v85h146v-388l148 113h-49v85h222v-85h-57l-118 -90l150 -166h59v-85h-209v85h36l-104 114l-78 -60v-54h53v-85h-199z" unicode="k"/>
<glyph glyph-name="l" d="M344 85h164v-85h-430v85h178v446h-136v85h224v-531z" unicode="l"/>
<glyph glyph-name="m" d="M23 0v85h42v256h-42v85h124v-45q12 27 37.5 43t54.5 16q63 0 87 -56q30 56 100 56q41 0 66.5 -29t25.5 -90v-236h43v-85h-128v310q0 44 -36 44q-25 0 -44 -24.5t-19 -64.5v-180h39v-85h-124v310q0 44 -36 44q-26 0 -44.5 -25t-18.5 -64v-180h39v-85h-166z" unicode="m"/>
<glyph glyph-name="n" d="M34 0v85h65v256h-61v85h148v-55q20 32 58.5 50.5t87.5 18.5q72 0 117.5 -42.5t45.5 -114.5v-198h65v-85h-221v85h68v174q0 51 -25 73t-61 22q-53 0 -93.5 -36t-40.5 -91v-142h68v-85h-221z" unicode="n"/>
<glyph glyph-name="o" d="M431 213q0 60 -40.5 101t-100.5 41t-100.5 -41t-40.5 -101t40.5 -101t100.5 -41t100.5 41t40.5 101zM56 213q0 98 66.5 162.5t167.5 64.5t167.5 -64.5t66.5 -162.5t-66.5 -162.5t-167.5 -64.5t-167.5 64.5t-66.5 162.5z" unicode="o"/>
<glyph glyph-name="p" d="M451 213q0 62 -38.5 103t-97.5 41t-99.5 -39t-40.5 -99v-12q0 -60 40.5 -99t99.5 -39t97.5 41t38.5 103zM87 341h-61v85h149v-52q53 66 152 66q93 0 154 -64t61 -163t-61 -163t-154 -64q-99 0 -152 66v-155h94v-85h-243v85h61v444z" unicode="p"/>
<glyph glyph-name="q" d="M129 213q0 -62 38.5 -103t97.5 -41t99.5 39t40.5 99v12q0 60 -40.5 99t-99.5 39t-97.5 -41t-38.5 -103zM554 341h-61v-444h61v-85h-251v85h102v155q-53 -66 -152 -66q-93 0 -154 64t-61 163t61 163t154 64q99 0 152 -66v52h149v-85z" unicode="q"/>
<glyph glyph-name="r" d="M544 326l-84 -24q-16 54 -68 54q-61 0 -105.5 -43.5t-44.5 -117.5v-110h148v-85h-330v85h94v256h-74v85h161v-72q21 39 61.5 62.5t93.5 23.5q60 0 98 -31t50 -83z" unicode="r"/>
<glyph glyph-name="s" d="M415 111q0 13 -8.5 23t-29 17t-36.5 11t-48 10q-39 7 -58.5 11.5t-52.5 16.5t-50 25t-30.5 36t-13.5 53q0 61 47 93.5t117 32.5q89 0 140 -49v35h83v-147h-74q-5 37 -46.5 59.5t-98.5 22.5q-77 0 -77 -44q0 -13 9.5 -23t32.5 -17t39.5 -10.5t52.5 -10.5q41 -8 69.5 -16 t59.5 -24t47.5 -41.5t16.5 -60.5q0 -60 -47.5 -94t-125.5 -34q-112 0 -166 53v-39h-83v154h74q5 -41 57.5 -65t114.5 -24q85 0 85 46z" unicode="s"/>
<glyph glyph-name="t" d="M249 162q0 -47 28 -70t71 -23q64 0 123 59l59 -61q-75 -81 -182 -81q-83 0 -135 45t-52 128v182h-111v85h111v154h88v-154h207v-85h-207v-179z" unicode="t"/>
<glyph glyph-name="u" d="M320 426h171v-341h61v-85h-148v55q-20 -32 -58.5 -50.5t-87.5 -18.5q-72 0 -117.5 42.5t-45.5 114.5v198h-73v85h161v-259q0 -51 25 -73t61 -22q53 0 93.5 35.5t40.5 91.5v142h-83v85z" unicode="u"/>
<glyph glyph-name="v" d="M339 0h-100l-163 341h-53v85h209v-85h-57l115 -247l114 247h-56v85h209v-85h-55z" unicode="v"/>
<glyph glyph-name="w" d="M460 0h-99l-71 194l-71 -194h-99l-67 341h-42v85h192v-85h-63l43 -232l67 186h84l67 -186l43 232h-66v85h191v-85h-42z" unicode="w"/>
<glyph glyph-name="x" d="M339 426h198v-85h-38l-152 -123l163 -133h38v-85h-207v85h51l-105 85l-104 -85h52v-85h-203v85h38l162 130l-154 126h-37v85h203v-85h-47l95 -78l95 78h-48v85z" unicode="x"/>
<glyph glyph-name="y" d="M352 -188h-276v84h120l46 98l-166 347h-53v85h209v-85h-57l115 -247l114 247h-56v85h209v-85h-55l-212 -445h62v-84z" unicode="y"/>
<glyph glyph-name="z" d="M100 280v146h384v-93l-281 -248h208v65h84v-150h-405v93l278 248h-184v-61h-84z" unicode="z"/>
<glyph glyph-name="braceleft" d="M327 139v-125q0 -67 55 -67h35v-84h-38q-140 0 -140 151v119q0 80 -84 80v94q84 0 84 80v119q0 151 140 151h38v-84h-35q-55 0 -55 -67v-125q0 -49 -21 -81.5t-61 -39.5q82 -15 82 -121z" unicode="{"/>
<glyph glyph-name="bar" d="M246 657h88v-795h-88v795z" unicode="|"/>
<glyph glyph-name="braceright" d="M253 381v125q0 67 -55 67h-35v84h38q140 0 140 -151v-119q0 -80 84 -80v-94q-84 0 -84 -80v-119q0 -151 -140 -151h-38v84h35q55 0 55 67v125q0 106 82 121q-40 7 -61 39.5t-21 81.5z" unicode="}"/>
<glyph glyph-name="asciitilde" d="M441 345l80 -24q-3 -48 -41.5 -91.5t-98.5 -43.5q-36 0 -70.5 20.5t-62.5 41t-49 20.5q-15 0 -26 -6.5t-17.5 -20t-9.5 -22t-7 -23.5l-80 24q3 48 41.5 91.5t98.5 43.5q36 0 70.5 -20.5t62.5 -41t49 -20.5q15 0 26 6.5t17.5 20t9.5 22t7 23.5z" unicode="~"/>
<glyph glyph-name="nbspace" unicode=" "/>
<glyph glyph-name="exclamdown" d="M354 -160h-128l30 407h68zM370 392q0 -34 -22.5 -56t-57.5 -22t-57.5 22t-22.5 56t22.5 55.5t57.5 21.5t57.5 -21.5t22.5 -55.5z" unicode="¡"/>
<glyph glyph-name="cent" d="M161 288q0 -53 28.5 -90.5t74.5 -49.5v275q-46 -12 -74.5 -49t-28.5 -86zM343 -54h-79v115q-89 14 -142.5 75.5t-53.5 151.5q0 86 55.5 148t140.5 73v107h79v-109q56 -14 80 -50v41h83v-168h-74q-4 31 -28 57t-61 36v-278q69 11 115 63l59 -61q-63 -75 -174 -87v-114z " unicode="¢"/>
<glyph glyph-name="sterling" d="M206 85h223v67h84v-152h-444v85h45q28 35 28 92v90h-73v85h73v52q0 87 55.5 138.5t138.5 51.5q65 0 113 -33t65 -83l-72 -39q-35 73 -106 73q-45 0 -75.5 -29t-30.5 -81v-50h152v-85h-152v-104q-3 -54 -24 -78z" unicode="£"/>
<glyph glyph-name="yen" d="M68 224h177v3l-32 47h-145v70h99l-101 151h-49v85h218v-85h-59l116 -179l116 179h-63v85h218v-85h-49l-101 -151h99v-70h-146l-31 -47v-3h177v-70h-177v-69h114v-85h-318v85h114v69h-177v70z" unicode="¥"/>
<glyph glyph-name="brokenbar" d="M334 318h-88v339h88v-339zM246 201h88v-339h-88v339z" unicode="¦"/>
<glyph glyph-name="section" d="M225 299q-26 14 -42 25q-21 -19 -21 -46q0 -42 60 -75l133 -73q27 -14 41 -25q22 19 22 46q0 42 -60 75zM507 156q0 -67 -60 -104q18 -33 18 -70q0 -73 -50.5 -110t-120.5 -37q-74 0 -125.5 40t-67.5 105l81 23q28 -87 111 -87q35 0 59 16t24 47q0 19 -10.5 34t-21 21.5 t-31.5 18.5l-129 72q-111 61 -111 148q0 67 59 104q-17 29 -17 70q0 73 50.5 110t120.5 37q74 0 125.5 -40t67.5 -105l-81 -23q-28 87 -111 87q-35 0 -59 -16t-24 -47q0 -19 10.5 -34t21 -21.5t31.5 -18.5l129 -72q111 -62 111 -148z" unicode="§"/>
<glyph glyph-name="dieresis" d="M460 576q0 -30 -20.5 -50t-49.5 -20t-49.5 20t-20.5 50t20.5 50t49.5 20t49.5 -20t20.5 -50zM260 576q0 -30 -20.5 -50t-49.5 -20t-49.5 20t-20.5 50t20.5 50t49.5 20t49.5 -20t20.5 -50z" unicode="¨"/>
<glyph glyph-name="copyright" d="M289 443q24 0 44 -10t29 -25v28h53v-114h-48q-3 27 -24.5 45t-51.5 18q-39 0 -61 -28.5t-22 -70.5t23 -70t62 -28q48 0 81 47l48 -33q-45 -72 -129 -72q-66 0 -107 43t-41 113t40.5 113.5t103.5 43.5zM290 58q88 0 150 66t62 166q0 99 -62 165t-150 66t-150 -66t-62 -165 q0 -100 62 -166t150 -66zM290 -3q-116 0 -196.5 83.5t-80.5 209.5t80.5 209t196.5 83t196.5 -83t80.5 -209t-80.5 -209.5t-196.5 -83.5z" unicode="©"/>
<glyph glyph-name="ordfeminine" d="M346 428v10q-31 12 -72 12q-29 0 -48.5 -11.5t-19.5 -33.5q0 -35 52 -35q35 0 61.5 16.5t26.5 41.5zM269 507q40 0 77 -13v12q1 28 -19 42.5t-54 14.5q-41 0 -84 -30l-48 50q59 49 133 49q66 0 108 -32t42 -91v-122h42v-73h-120v31q-34 -42 -106 -42q-47 0 -80 26t-33 71 q0 52 42 79.5t100 27.5z" unicode="ª"/>
<glyph glyph-name="guillemotleft" d="M301 343l-127 -126l127 -126l-63 -62l-186 188l186 188zM528 343l-127 -126l127 -126l-63 -62l-186 188l186 188z" unicode="«"/>
<glyph glyph-name="logicalnot" d="M512 135h-88v185h-356v85h444v-270z" unicode="¬"/>
<glyph glyph-name="uni00AD" d="M441 319v-98h-302v98h302z" unicode="­"/>
<glyph glyph-name="registered" d="M245 380v-66h56q48 0 48 34q0 20 -15 26t-52 6h-37zM351 142l-67 117h-39v-61h33v-56h-122v56h30v182h-30v56h144q50 0 80 -22.5t30 -64.5q0 -31 -17 -52.5t-46 -30.5l40 -69h42v-55h-78zM290 58q88 0 150 66t62 166q0 99 -62 165t-150 66t-150 -66t-62 -165 q0 -100 62 -166t150 -66zM290 -3q-116 0 -196.5 83.5t-80.5 209.5t80.5 209t196.5 83t196.5 -83t80.5 -209t-80.5 -209.5t-196.5 -83.5z" unicode="®"/>
<glyph glyph-name="macron" d="M161 505v84h258v-84h-258z" unicode="¯"/>
<glyph glyph-name="degree" d="M361 476q0 32 -20.5 53.5t-50.5 21.5t-50.5 -21.5t-20.5 -53.5t20.5 -53.5t50.5 -21.5t50.5 21.5t20.5 53.5zM443 476q0 -64 -44.5 -109t-108.5 -45t-108.5 45t-44.5 109t44.5 109t108.5 45t108.5 -45t44.5 -109z" unicode="°"/>
<glyph glyph-name="plusminus" d="M68 130h444v-85h-444v85zM247 556h85v-141h174v-85h-174v-142h-85v142h-173v85h173v141z" unicode="±"/>
<glyph glyph-name="twosuperior" d="M166 300v75l124 96q46 35 46 58q0 15 -12 24t-32 9q-15 0 -28 -7.5t-19 -14t-16 -21.5l-62 31q40 80 124 80q53 0 86 -29.5t33 -71.5q0 -46 -59 -92l-94 -72h93v35h64v-100h-248z" unicode="²"/>
<glyph glyph-name="threesuperior" d="M288 360q19 0 34.5 10.5t15.5 31.5q0 19 -14 30.5t-36 11.5q-12 0 -31 -6l-38 54l92 63h-125v67h204v-72l-84 -56h4q41 0 71.5 -26.5t30.5 -66.5q0 -44 -34.5 -76.5t-88.5 -32.5q-39 0 -70.5 17.5t-49.5 43.5l54 43q26 -36 65 -36z" unicode="³"/>
<glyph glyph-name="acute" d="M343 691l66 -94l-192 -116l-46 65z" unicode="´"/>
<glyph glyph-name="mu" d="M297 -14q-38 0 -68.5 15t-44.5 41v-230h-87v529h-72v85h160v-237q0 -49 34 -83t78 -34t78 34t34 83v152h-73v85h161v-341h61v-85h-148v49q-14 -29 -44.5 -46t-68.5 -17z" unicode="µ"/>
<glyph glyph-name="mu" d="M297 -14q-38 0 -68.5 15t-44.5 41v-230h-87v529h-72v85h160v-237q0 -49 34 -83t78 -34t78 34t34 83v152h-73v85h161v-341h61v-85h-148v49q-14 -29 -44.5 -46t-68.5 -17z" unicode="μ"/>
<glyph glyph-name="paragraph" d="M223 -54v310q-76 0 -128.5 44.5t-52.5 117.5q0 72 52.5 117t128.5 45h313v-85h-58v-549h-88v549h-79v-549h-88z" unicode="¶"/>
<glyph glyph-name="periodcentered" d="M196 290q0 40 26.5 66t67.5 26t67.5 -26t26.5 -66t-26.5 -65.5t-67.5 -25.5t-67.5 25.5t-26.5 65.5z" unicode="·"/>
<glyph glyph-name="cedilla" d="M183 -181l45 34q29 -37 60 -37q21 0 33.5 10.5t12.5 27.5q0 18 -12.5 27.5t-30.5 9.5q-12 0 -23 -4l-45 33l42 80h58l-30 -55h4q43 0 71 -25t28 -66q0 -42 -31 -68t-76 -26q-35 0 -63 17t-43 42z" unicode="¸"/>
<glyph glyph-name="onesuperior" d="M332 368h90v-68h-264v68h102v168l-52 -47l-42 55l88 78h78v-254z" unicode="¹"/>
<glyph glyph-name="ordmasculine" d="M290 378q38 0 64 25.5t26 63.5t-26 63.5t-64 25.5t-64.5 -26t-26.5 -63t26.5 -63t64.5 -26zM290 303q-74 0 -123.5 46.5t-49.5 117.5t49.5 118t123.5 47t123 -47t49 -118t-49 -117.5t-123 -46.5z" unicode="º"/>
<glyph glyph-name="guillemotright" d="M406 217l-127 126l63 62l186 -188l-186 -188l-63 62zM179 217l-127 126l63 62l186 -188l-186 -188l-63 62z" unicode="»"/>
<glyph glyph-name="onequarter" d="M388 129h63v84zM328 135l103 139h78v-145h32v-49h-32v-25h32v-55h-137v55h47v25h-123v55zM556 556l-471 -577l-54 45l471 578zM174 407h74v-59h-224v59h86v142l-44 -37l-35 47l74 63h69v-215z" unicode="¼"/>
<glyph glyph-name="onehalf" d="M346 0v65l105 80q38 30 38 49q0 12 -10 19.5t-26 7.5q-13 0 -24 -6t-16 -11.5t-14 -17.5l-53 26q35 68 106 68q45 0 73 -25t28 -61q0 -41 -50 -78l-80 -60h78v29h55v-85h-210zM174 407h74v-59h-224v59h86v142l-44 -37l-35 47l74 63h69v-215zM556 556l-471 -577l-54 45 l471 578z" unicode="½"/>
<glyph glyph-name="threequarters" d="M137 401q17 0 29.5 8.5t12.5 25.5q0 16 -12 25.5t-30 9.5q-14 0 -26 -5l-34 47l79 52h-106v58h174v-62l-71 -46h4q35 0 60.5 -22.5t25.5 -56.5q0 -37 -29.5 -65t-75.5 -28q-33 0 -60.5 15t-42.5 37l46 36q22 -29 56 -29zM385 129h63v84zM325 135l103 139h78v-145h32v-49 h-32v-25h32v-55h-137v55h47v25h-123v55zM553 556l-471 -577l-54 45l471 578z" unicode="¾"/>
<glyph glyph-name="questiondown" d="M273 469q32 0 53 -20.5t21 -52.5q0 -31 -21 -52t-53 -21t-53 21t-21 52q0 32 21 52.5t53 20.5zM282 -141q-93 0 -149 51t-56 124q0 67 44 111.5t110 68.5v63h88v-114q-64 -14 -105.5 -48t-41.5 -81q0 -38 30 -63.5t80 -25.5q76 0 130 85l76 -48q-30 -53 -82 -88t-124 -35 z" unicode="¿"/>
<glyph glyph-name="Agrave" d="M288 494l-75 -236h150zM346 85h72l-28 89h-204l-29 -89h74v-85h-217v85h51l162 495h126l161 -495h52v-85h-220v85zM164 741l66 94l172 -145l-46 -65z" unicode="À"/>
<glyph glyph-name="Aacute" d="M288 494l-75 -236h150zM346 85h72l-28 89h-204l-29 -89h74v-85h-217v85h51l162 495h126l161 -495h52v-85h-220v85zM350 835l66 -94l-192 -116l-46 65z" unicode="Á"/>
<glyph glyph-name="Acircumflex" d="M146 692l144 127l144 -127l-53 -63l-91 80l-91 -80zM288 494l-75 -236h150zM346 85h72l-28 89h-204l-29 -89h74v-85h-217v85h51l162 495h126l161 -495h52v-85h-220v85z" unicode="Â"/>
<glyph glyph-name="Atilde" d="M380 743l71 -24q-2 -32 -30.5 -62t-69.5 -30q-33 0 -66.5 21.5t-47.5 21.5q-15 0 -25.5 -10.5t-12.5 -26.5l-71 24q2 32 30.5 62t69.5 30q33 0 66.5 -21.5t47.5 -21.5q15 0 25.5 10.5t12.5 26.5zM288 494l-75 -236h150zM346 85h72l-28 89h-204l-29 -89h74v-85h-217v85h51 l162 495h126l161 -495h52v-85h-220v85z" unicode="Ã"/>
<glyph glyph-name="Adieresis" d="M288 494l-75 -236h150zM346 85h72l-28 89h-204l-29 -89h74v-85h-217v85h51l162 495h126l161 -495h52v-85h-220v85zM460 711q0 -30 -20.5 -50t-49.5 -20t-49.5 20t-20.5 50t20.5 50t49.5 20t49.5 -20t20.5 -50zM260 711q0 -30 -20.5 -50t-49.5 -20t-49.5 20t-20.5 50 t20.5 50t49.5 20t49.5 -20t20.5 -50z" unicode="Ä"/>
<glyph glyph-name="Aring" d="M331 736q0 18 -11 30t-30 12t-30 -12t-11 -30t11 -30t30 -12t30 12t11 30zM400 736q0 -45 -32 -77t-78 -32t-78 32t-32 77q0 46 31.5 77.5t78.5 31.5t78.5 -31.5t31.5 -77.5zM288 494l-75 -236h150zM346 85h72l-28 89h-204l-29 -89h74v-85h-217v85h51l162 495h126 l161 -495h52v-85h-220v85z" unicode="Å"/>
<glyph glyph-name="AE" d="M277 495h-27l-71 -248h98v248zM9 85h38l119 410h-51v85h451v-179h-87v94h-113v-166h50v30h78v-142h-78v30h-50v-162h118v82h87v-167h-336v85h42v80h-122l-23 -80h48v-85h-171v85z" unicode="Æ"/>
<glyph glyph-name="Ccedilla" d="M187 -181l45 34q29 -37 60 -37q21 0 33.5 10.5t12.5 27.5q0 18 -12.5 27.5t-30.5 9.5q-12 0 -23 -4l-45 33l36 70q-98 16 -157 97t-59 203q0 136 71.5 220t184.5 84q45 0 83.5 -20t54.5 -49v55h86v-214h-79q-6 61 -46.5 101t-96.5 40q-76 0 -119 -62t-43 -155 q0 -94 43.5 -155.5t122.5 -61.5q52 0 86.5 27t62.5 74l78 -47q-28 -57 -85 -97.5t-132 -43.5l-22 -41h4q43 0 71 -25t28 -66q0 -42 -31 -68t-76 -26q-35 0 -63 17t-43 42z" unicode="Ç"/>
<glyph glyph-name="Egrave" d="M171 741l66 94l172 -145l-46 -65zM366 394v-204h-84v61h-82v-166h248v92h88v-177h-495v85h67v410h-67v85h489v-191h-88v106h-242v-162h82v61h84z" unicode="È"/>
<glyph glyph-name="Eacute" d="M365 835l66 -94l-192 -116l-46 65zM366 394v-204h-84v61h-82v-166h248v92h88v-177h-495v85h67v410h-67v85h489v-191h-88v106h-242v-162h82v61h84z" unicode="É"/>
<glyph glyph-name="Ecircumflex" d="M155 692l144 127l144 -127l-53 -63l-91 80l-91 -80zM366 394v-204h-84v61h-82v-166h248v92h88v-177h-495v85h67v410h-67v85h489v-191h-88v106h-242v-162h82v61h84z" unicode="Ê"/>
<glyph glyph-name="Edieresis" d="M468 716q0 -30 -20.5 -50t-49.5 -20t-49.5 20t-20.5 50t20.5 50t49.5 20t49.5 -20t20.5 -50zM268 716q0 -30 -20.5 -50t-49.5 -20t-49.5 20t-20.5 50t20.5 50t49.5 20t49.5 -20t20.5 -50zM366 394v-204h-84v61h-82v-166h248v92h88v-177h-495v85h67v410h-67v85h489v-191 h-88v106h-242v-162h82v61h84z" unicode="Ë"/>
<glyph glyph-name="Igrave" d="M159 741l66 94l172 -145l-46 -65zM88 580h404v-85h-155v-410h155v-85h-404v85h155v410h-155v85z" unicode="Ì"/>
<glyph glyph-name="Iacute" d="M355 835l66 -94l-192 -116l-46 65zM88 580h404v-85h-155v-410h155v-85h-404v85h155v410h-155v85z" unicode="Í"/>
<glyph glyph-name="Icircumflex" d="M146 692l144 127l144 -127l-53 -63l-91 80l-91 -80zM88 580h404v-85h-155v-410h155v-85h-404v85h155v410h-155v85z" unicode="Î"/>
<glyph glyph-name="Idieresis" d="M460 716q0 -30 -20.5 -50t-49.5 -20t-49.5 20t-20.5 50t20.5 50t49.5 20t49.5 -20t20.5 -50zM260 716q0 -30 -20.5 -50t-49.5 -20t-49.5 20t-20.5 50t20.5 50t49.5 20t49.5 -20t20.5 -50zM88 580h404v-85h-155v-410h155v-85h-404v85h155v410h-155v85z" unicode="Ï"/>
<glyph glyph-name="Eth" d="M316 347v-85h-125v-177h59q98 0 151.5 54.5t53.5 150.5q0 94 -54 149.5t-151 55.5h-59v-148h125zM250 580q144 0 222.5 -79t78.5 -211t-78.5 -211t-222.5 -79h-213v85h62v177h-69v85h69v148h-62v85h213z" unicode="Ð"/>
<glyph glyph-name="Ntilde" d="M379 743l71 -24q-2 -32 -30.5 -62t-69.5 -30q-33 0 -66.5 21.5t-47.5 21.5q-15 0 -25.5 -10.5t-12.5 -26.5l-71 24q2 32 30.5 62t69.5 30q33 0 66.5 -21.5t47.5 -21.5q15 0 25.5 10.5t12.5 26.5zM498 0h-103l-221 429v-344h78v-85h-220v85h54v410h-54v85h161l217 -427 v342h-78v85h220v-85h-54v-495z" unicode="Ñ"/>
<glyph glyph-name="Ograve" d="M167 741l66 94l172 -145l-46 -65zM449 290q0 93 -42 155t-117 62t-117 -62t-42 -155q0 -94 42 -155.5t117 -61.5t117 61.5t42 155.5zM35 290q0 136 71 220t184 84t184 -84t71 -220t-71 -220t-184 -84t-184 84t-71 220z" unicode="Ò"/>
<glyph glyph-name="Oacute" d="M347 835l66 -94l-192 -116l-46 65zM449 290q0 93 -42 155t-117 62t-117 -62t-42 -155q0 -94 42 -155.5t117 -61.5t117 61.5t42 155.5zM35 290q0 136 71 220t184 84t184 -84t71 -220t-71 -220t-184 -84t-184 84t-71 220z" unicode="Ó"/>
<glyph glyph-name="Ocircumflex" d="M146 692l144 127l144 -127l-53 -63l-91 80l-91 -80zM449 290q0 93 -42 155t-117 62t-117 -62t-42 -155q0 -94 42 -155.5t117 -61.5t117 61.5t42 155.5zM35 290q0 136 71 220t184 84t184 -84t71 -220t-71 -220t-184 -84t-184 84t-71 220z" unicode="Ô"/>
<glyph glyph-name="Otilde" d="M380 743l71 -24q-2 -32 -30.5 -62t-69.5 -30q-33 0 -66.5 21.5t-47.5 21.5q-15 0 -25.5 -10.5t-12.5 -26.5l-71 24q2 32 30.5 62t69.5 30q33 0 66.5 -21.5t47.5 -21.5q15 0 25.5 10.5t12.5 26.5zM449 290q0 93 -42 155t-117 62t-117 -62t-42 -155q0 -94 42 -155.5 t117 -61.5t117 61.5t42 155.5zM35 290q0 136 71 220t184 84t184 -84t71 -220t-71 -220t-184 -84t-184 84t-71 220z" unicode="Õ"/>
<glyph glyph-name="Odieresis" d="M460 716q0 -30 -20.5 -50t-49.5 -20t-49.5 20t-20.5 50t20.5 50t49.5 20t49.5 -20t20.5 -50zM260 716q0 -30 -20.5 -50t-49.5 -20t-49.5 20t-20.5 50t20.5 50t49.5 20t49.5 -20t20.5 -50zM449 290q0 93 -42 155t-117 62t-117 -62t-42 -155q0 -94 42 -155.5t117 -61.5 t117 61.5t42 155.5zM35 290q0 136 71 220t184 84t184 -84t71 -220t-71 -220t-184 -84t-184 84t-71 220z" unicode="Ö"/>
<glyph glyph-name="multiply" d="M154 473l136 -136l136 136l60 -60l-136 -136l136 -136l-60 -60l-136 136l-136 -136l-60 60l136 136l-136 136z" unicode="×"/>
<glyph glyph-name="Oslash" d="M449 290q0 70 -25 125l-203 -325q31 -17 69 -17q75 0 117 61.5t42 155.5zM131 290q0 -81 32 -139l206 332q-35 24 -79 24q-75 0 -117 -62t-42 -155zM536 596l-57 -92q66 -83 66 -214q0 -136 -71 -220t-184 -84q-63 0 -116 28l-54 -86l-69 43l59 94q-75 84 -75 225 q0 136 71 220t184 84q71 0 127 -35l50 81z" unicode="Ø"/>
<glyph glyph-name="Ugrave" d="M151 741l66 94l172 -145l-46 -65zM10 495v85h225v-85h-71v-301q0 -56 36.5 -89t89.5 -33t89.5 33t36.5 89v301h-71v85h225v-85h-62v-304q0 -94 -63.5 -149.5t-154.5 -55.5t-154.5 55.5t-63.5 149.5v304h-62z" unicode="Ù"/>
<glyph glyph-name="Uacute" d="M363 835l66 -94l-192 -116l-46 65zM10 495v85h225v-85h-71v-301q0 -56 36.5 -89t89.5 -33t89.5 33t36.5 89v301h-71v85h225v-85h-62v-304q0 -94 -63.5 -149.5t-154.5 -55.5t-154.5 55.5t-63.5 149.5v304h-62z" unicode="Ú"/>
<glyph glyph-name="Ucircumflex" d="M146 694l144 127l144 -127l-53 -63l-91 80l-91 -80zM10 495v85h225v-85h-71v-301q0 -56 36.5 -89t89.5 -33t89.5 33t36.5 89v301h-71v85h225v-85h-62v-304q0 -94 -63.5 -149.5t-154.5 -55.5t-154.5 55.5t-63.5 149.5v304h-62z" unicode="Û"/>
<glyph glyph-name="Udieresis" d="M460 716q0 -30 -20.5 -50t-49.5 -20t-49.5 20t-20.5 50t20.5 50t49.5 20t49.5 -20t20.5 -50zM260 716q0 -30 -20.5 -50t-49.5 -20t-49.5 20t-20.5 50t20.5 50t49.5 20t49.5 -20t20.5 -50zM10 495v85h225v-85h-71v-301q0 -56 36.5 -89t89.5 -33t89.5 33t36.5 89v301h-71 v85h225v-85h-62v-304q0 -94 -63.5 -149.5t-154.5 -55.5t-154.5 55.5t-63.5 149.5v304h-62z" unicode="Ü"/>
<glyph glyph-name="Yacute" d="M373 835l66 -94l-192 -116l-46 65zM345 580h218v-85h-49l-178 -266v-144h123v-85h-338v85h123v144l-178 266h-49v85h218v-85h-59l116 -179l116 179h-63v85z" unicode="Ý"/>
<glyph glyph-name="Thorn" d="M317 366h-108v-145h108q130 0 130 73q0 72 -130 72zM209 495v-44h111q105 0 163 -39t58 -117q0 -79 -59.5 -119t-161.5 -40h-111v-51h151v-85h-313v85h70v410h-70v85h313v-85h-151z" unicode="Þ"/>
<glyph glyph-name="germandbls" d="M282 620q77 0 128 -40t51 -106q0 -70 -54 -106q-9 -6 -32.5 -18t-32.5 -21t-9 -23q0 -9 4.5 -16t16.5 -13t20 -9t29 -8.5t29 -8.5q56 -17 90 -47.5t34 -90.5q0 -58 -35.5 -92.5t-89.5 -34.5q-79 0 -119 52v-38h-79v146h72q4 -36 37.5 -59t70.5 -23q54 0 54 47 q0 28 -21.5 42t-64.5 26q-33 9 -49.5 15t-41 20t-35.5 36.5t-11 54.5q0 19 5 34.5t10 25t17.5 20t18 14t22 12.5t19.5 10q37 19 37 54q0 30 -26.5 46.5t-64.5 16.5q-98 0 -98 -112v-426h-144v85h56v256h-56v85h56v1q1 94 51.5 143.5t134.5 49.5z" unicode="ß"/>
<glyph glyph-name="agrave" d="M160 597l66 94l172 -145l-46 -65zM375 160v12q-50 18 -109 18q-47 0 -78.5 -16.5t-31.5 -52.5q0 -28 22 -42t59 -14q53 0 95.5 26t42.5 69zM465 275v-190h62v-85h-152v45q-17 -27 -58 -43t-88 -16q-70 0 -117 35t-47 99q0 73 58.5 109t138.5 36q51 0 113 -17v24 q0 42 -28.5 63.5t-71.5 21.5q-69 0 -125 -51l-58 63q77 71 183 71q83 0 136.5 -43.5t53.5 -121.5z" unicode="à"/>
<glyph glyph-name="aacute" d="M339 691l66 -94l-192 -116l-46 65zM375 160v12q-50 18 -109 18q-47 0 -78.5 -16.5t-31.5 -52.5q0 -28 22 -42t59 -14q53 0 95.5 26t42.5 69zM465 275v-190h62v-85h-152v45q-17 -27 -58 -43t-88 -16q-70 0 -117 35t-47 99q0 73 58.5 109t138.5 36q51 0 113 -17v24 q0 42 -28.5 63.5t-71.5 21.5q-69 0 -125 -51l-58 63q77 71 183 71q83 0 136.5 -43.5t53.5 -121.5z" unicode="á"/>
<glyph glyph-name="acircumflex" d="M136 550l144 127l144 -127l-53 -63l-91 80l-91 -80zM375 160v12q-50 18 -109 18q-47 0 -78.5 -16.5t-31.5 -52.5q0 -28 22 -42t59 -14q53 0 95.5 26t42.5 69zM465 275v-190h62v-85h-152v45q-17 -27 -58 -43t-88 -16q-70 0 -117 35t-47 99q0 73 58.5 109t138.5 36 q51 0 113 -17v24q0 42 -28.5 63.5t-71.5 21.5q-69 0 -125 -51l-58 63q77 71 183 71q83 0 136.5 -43.5t53.5 -121.5z" unicode="â"/>
<glyph glyph-name="atilde" d="M372 601l71 -24q-2 -32 -30.5 -62t-69.5 -30q-33 0 -66.5 21.5t-47.5 21.5q-15 0 -25.5 -10.5t-12.5 -26.5l-71 24q2 32 30.5 62t69.5 30q33 0 66.5 -21.5t47.5 -21.5q15 0 25.5 10.5t12.5 26.5zM375 160v12q-50 18 -109 18q-47 0 -78.5 -16.5t-31.5 -52.5q0 -28 22 -42 t59 -14q53 0 95.5 26t42.5 69zM465 275v-190h62v-85h-152v45q-17 -27 -58 -43t-88 -16q-70 0 -117 35t-47 99q0 73 58.5 109t138.5 36q51 0 113 -17v24q0 42 -28.5 63.5t-71.5 21.5q-69 0 -125 -51l-58 63q77 71 183 71q83 0 136.5 -43.5t53.5 -121.5z" unicode="ã"/>
<glyph glyph-name="adieresis" d="M450 576q0 -30 -20.5 -50t-49.5 -20t-49.5 20t-20.5 50t20.5 50t49.5 20t49.5 -20t20.5 -50zM250 576q0 -30 -20.5 -50t-49.5 -20t-49.5 20t-20.5 50t20.5 50t49.5 20t49.5 -20t20.5 -50zM375 160v12q-50 18 -109 18q-47 0 -78.5 -16.5t-31.5 -52.5q0 -28 22 -42t59 -14 q53 0 95.5 26t42.5 69zM465 275v-190h62v-85h-152v45q-17 -27 -58 -43t-88 -16q-70 0 -117 35t-47 99q0 73 58.5 109t138.5 36q51 0 113 -17v24q0 42 -28.5 63.5t-71.5 21.5q-69 0 -125 -51l-58 63q77 71 183 71q83 0 136.5 -43.5t53.5 -121.5z" unicode="ä"/>
<glyph glyph-name="aring" d="M321 588q0 18 -11 30t-30 12t-30 -12t-11 -30t11 -30t30 -12t30 12t11 30zM390 588q0 -45 -32 -77t-78 -32t-78 32t-32 77q0 46 31.5 77.5t78.5 31.5t78.5 -31.5t31.5 -77.5zM375 160v12q-50 18 -109 18q-47 0 -78.5 -16.5t-31.5 -52.5q0 -28 22 -42t59 -14q53 0 95.5 26 t42.5 69zM465 275v-190h62v-85h-152v45q-17 -27 -58 -43t-88 -16q-70 0 -117 35t-47 99q0 73 58.5 109t138.5 36q51 0 113 -17v24q0 42 -28.5 63.5t-71.5 21.5q-69 0 -125 -51l-58 63q77 71 183 71q83 0 136.5 -43.5t53.5 -121.5z" unicode="å"/>
<glyph glyph-name="ae" d="M331 256h139q-2 45 -20 73.5t-43 28.5q-31 0 -51.5 -28.5t-24.5 -73.5zM239 158v24h-48q-37 0 -62 -16t-25 -49q0 -24 14.5 -37t37.5 -13q31 0 57 25.5t26 65.5zM502 120l54 -58q-58 -76 -143 -76q-86 0 -129 75q-42 -75 -137 -75q-55 0 -92.5 34.5t-37.5 95.5 q0 68 49.5 104t116.5 36h56v16q0 43 -18 64.5t-46 21.5q-51 0 -86 -48l-57 59q62 71 143 71q83 0 117 -71q37 71 115 71q72 0 114.5 -67t42.5 -176v-15h-237q4 -52 27.5 -83t60.5 -31q24 0 47.5 15t39.5 37z" unicode="æ"/>
<glyph glyph-name="ccedilla" d="M186 -181l45 34q29 -37 60 -37q21 0 33.5 10.5t12.5 27.5q0 18 -12.5 27.5t-30.5 9.5q-12 0 -23 -4l-45 33l36 70q-90 13 -144 74.5t-54 151.5q0 95 67.5 159.5t167.5 64.5q46 0 79.5 -16.5t48.5 -38.5v41h83v-168h-73q-6 42 -42.5 70t-91.5 28q-63 0 -104.5 -40.5 t-41.5 -99.5q0 -65 43 -105.5t108 -40.5q93 0 154 68l60 -61q-34 -40 -87.5 -64.5t-116.5 -26.5l-22 -41h4q43 0 71 -25t28 -66q0 -42 -31 -68t-76 -26q-35 0 -63 17t-43 42z" unicode="ç"/>
<glyph glyph-name="egrave" d="M173 597l66 94l172 -145l-46 -65zM455 127l59 -62q-34 -36 -89.5 -57.5t-119.5 -21.5q-107 0 -175 64t-68 163q0 98 65.5 162.5t166.5 64.5q100 0 164 -69t64 -174v-15h-367q11 -53 52 -83.5t99 -30.5q95 0 149 59zM159 257h262q-10 45 -45.5 73.5t-81.5 28.5 q-50 0 -87 -28t-48 -74z" unicode="è"/>
<glyph glyph-name="eacute" d="M345 691l66 -94l-192 -116l-46 65zM455 127l59 -62q-34 -36 -89.5 -57.5t-119.5 -21.5q-107 0 -175 64t-68 163q0 98 65.5 162.5t166.5 64.5q100 0 164 -69t64 -174v-15h-367q11 -53 52 -83.5t99 -30.5q95 0 149 59zM159 257h262q-10 45 -45.5 73.5t-81.5 28.5 q-50 0 -87 -28t-48 -74z" unicode="é"/>
<glyph glyph-name="ecircumflex" d="M151 550l144 127l144 -127l-53 -63l-91 80l-91 -80zM455 127l59 -62q-34 -36 -89.5 -57.5t-119.5 -21.5q-107 0 -175 64t-68 163q0 98 65.5 162.5t166.5 64.5q100 0 164 -69t64 -174v-15h-367q11 -53 52 -83.5t99 -30.5q95 0 149 59zM159 257h262q-10 45 -45.5 73.5 t-81.5 28.5q-50 0 -87 -28t-48 -74z" unicode="ê"/>
<glyph glyph-name="edieresis" d="M465 576q0 -30 -20.5 -50t-49.5 -20t-49.5 20t-20.5 50t20.5 50t49.5 20t49.5 -20t20.5 -50zM265 576q0 -30 -20.5 -50t-49.5 -20t-49.5 20t-20.5 50t20.5 50t49.5 20t49.5 -20t20.5 -50zM455 127l59 -62q-34 -36 -89.5 -57.5t-119.5 -21.5q-107 0 -175 64t-68 163 q0 98 65.5 162.5t166.5 64.5q100 0 164 -69t64 -174v-15h-367q11 -53 52 -83.5t99 -30.5q95 0 149 59zM159 257h262q-10 45 -45.5 73.5t-81.5 28.5q-50 0 -87 -28t-48 -74z" unicode="ë"/>
<glyph glyph-name="igrave" d="M157 597l66 94l172 -145l-46 -65zM344 85h164v-85h-430v85h178v256h-136v85h224v-341z" unicode="ì"/>
<glyph glyph-name="iacute" d="M350 691l66 -94l-192 -116l-46 65zM344 85h164v-85h-430v85h178v256h-136v85h224v-341z" unicode="í"/>
<glyph glyph-name="icircumflex" d="M150 550l144 127l144 -127l-53 -63l-91 80l-91 -80zM344 85h164v-85h-430v85h178v256h-136v85h224v-341z" unicode="î"/>
<glyph glyph-name="idieresis" d="M465 576q0 -30 -20.5 -50t-49.5 -20t-49.5 20t-20.5 50t20.5 50t49.5 20t49.5 -20t20.5 -50zM265 576q0 -30 -20.5 -50t-49.5 -20t-49.5 20t-20.5 50t20.5 50t49.5 20t49.5 -20t20.5 -50zM344 85h164v-85h-430v85h178v256h-136v85h224v-341z" unicode="ï"/>
<glyph glyph-name="eth" d="M415 191q0 52 -36.5 87t-91.5 35q-54 0 -91 -35.5t-37 -86.5t37 -85.5t91 -34.5t91 34.5t37 85.5zM180 623q81 -26 148 -71l94 47l28 -54l-70 -35q128 -122 128 -303q0 -101 -62 -161t-159 -60q-95 0 -158 58.5t-63 146.5q0 90 62.5 148.5t151.5 58.5q68 0 108 -38 q-29 58 -89 110l-95 -48l-28 54l68 34q-49 31 -107 51z" unicode="ð"/>
<glyph glyph-name="ntilde" d="M392 601l71 -24q-2 -32 -30.5 -62t-69.5 -30q-33 0 -66.5 21.5t-47.5 21.5q-15 0 -25.5 -10.5t-12.5 -26.5l-71 24q2 32 30.5 62t69.5 30q33 0 66.5 -21.5t47.5 -21.5q15 0 25.5 10.5t12.5 26.5zM34 0v85h65v256h-61v85h148v-55q20 32 58.5 50.5t87.5 18.5 q72 0 117.5 -42.5t45.5 -114.5v-198h65v-85h-221v85h68v174q0 51 -25 73t-61 22q-53 0 -93.5 -36t-40.5 -91v-142h68v-85h-221z" unicode="ñ"/>
<glyph glyph-name="ograve" d="M164 597l66 94l172 -145l-46 -65zM431 213q0 60 -40.5 101t-100.5 41t-100.5 -41t-40.5 -101t40.5 -101t100.5 -41t100.5 41t40.5 101zM56 213q0 98 66.5 162.5t167.5 64.5t167.5 -64.5t66.5 -162.5t-66.5 -162.5t-167.5 -64.5t-167.5 64.5t-66.5 162.5z" unicode="ò"/>
<glyph glyph-name="oacute" d="M350 691l66 -94l-192 -116l-46 65zM431 213q0 60 -40.5 101t-100.5 41t-100.5 -41t-40.5 -101t40.5 -101t100.5 -41t100.5 41t40.5 101zM56 213q0 98 66.5 162.5t167.5 64.5t167.5 -64.5t66.5 -162.5t-66.5 -162.5t-167.5 -64.5t-167.5 64.5t-66.5 162.5z" unicode="ó"/>
<glyph glyph-name="ocircumflex" d="M146 550l144 127l144 -127l-53 -63l-91 80l-91 -80zM431 213q0 60 -40.5 101t-100.5 41t-100.5 -41t-40.5 -101t40.5 -101t100.5 -41t100.5 41t40.5 101zM56 213q0 98 66.5 162.5t167.5 64.5t167.5 -64.5t66.5 -162.5t-66.5 -162.5t-167.5 -64.5t-167.5 64.5t-66.5 162.5 z" unicode="ô"/>
<glyph glyph-name="otilde" d="M380 601l71 -24q-2 -32 -30.5 -62t-69.5 -30q-33 0 -66.5 21.5t-47.5 21.5q-15 0 -25.5 -10.5t-12.5 -26.5l-71 24q2 32 30.5 62t69.5 30q33 0 66.5 -21.5t47.5 -21.5q15 0 25.5 10.5t12.5 26.5zM431 213q0 60 -40.5 101t-100.5 41t-100.5 -41t-40.5 -101t40.5 -101 t100.5 -41t100.5 41t40.5 101zM56 213q0 98 66.5 162.5t167.5 64.5t167.5 -64.5t66.5 -162.5t-66.5 -162.5t-167.5 -64.5t-167.5 64.5t-66.5 162.5z" unicode="õ"/>
<glyph glyph-name="odieresis" d="M460 576q0 -30 -20.5 -50t-49.5 -20t-49.5 20t-20.5 50t20.5 50t49.5 20t49.5 -20t20.5 -50zM260 576q0 -30 -20.5 -50t-49.5 -20t-49.5 20t-20.5 50t20.5 50t49.5 20t49.5 -20t20.5 -50zM431 213q0 60 -40.5 101t-100.5 41t-100.5 -41t-40.5 -101t40.5 -101t100.5 -41 t100.5 41t40.5 101zM56 213q0 98 66.5 162.5t167.5 64.5t167.5 -64.5t66.5 -162.5t-66.5 -162.5t-167.5 -64.5t-167.5 64.5t-66.5 162.5z" unicode="ö"/>
<glyph glyph-name="divide" d="M228 105q0 27 17.5 44t44.5 17t44.5 -17t17.5 -44t-17.5 -44t-44.5 -17t-44.5 17t-17.5 44zM512 233h-444v85h444v-85zM228 446q0 27 17.5 44t44.5 17t44.5 -17t17.5 -44t-17.5 -44t-44.5 -17t-44.5 17t-17.5 44z" unicode="÷"/>
<glyph glyph-name="oslash" d="M431 213q0 46 -25 82l-165 -216q24 -8 49 -8q60 0 100.5 41t40.5 101zM149 213q0 -51 29 -88l167 219q-27 11 -55 11q-60 0 -100.5 -41t-40.5 -101zM515 439l-52 -69q61 -64 61 -157q0 -98 -66.5 -162.5t-167.5 -64.5q-55 0 -103 21l-59 -77l-62 48l56 73q-66 66 -66 162 q0 98 66.5 162.5t167.5 64.5q59 0 109 -25l55 72z" unicode="ø"/>
<glyph glyph-name="ugrave" d="M142 597l66 94l172 -145l-46 -65zM320 426h171v-341h61v-85h-148v55q-20 -32 -58.5 -50.5t-87.5 -18.5q-72 0 -117.5 42.5t-45.5 114.5v198h-73v85h161v-259q0 -51 25 -73t61 -22q53 0 93.5 35.5t40.5 91.5v142h-83v85z" unicode="ù"/>
<glyph glyph-name="uacute" d="M353 691l66 -94l-192 -116l-46 65zM320 426h171v-341h61v-85h-148v55q-20 -32 -58.5 -50.5t-87.5 -18.5q-72 0 -117.5 42.5t-45.5 114.5v198h-73v85h161v-259q0 -51 25 -73t61 -22q53 0 93.5 35.5t40.5 91.5v142h-83v85z" unicode="ú"/>
<glyph glyph-name="ucircumflex" d="M139 550l144 127l144 -127l-53 -63l-91 80l-91 -80zM320 426h171v-341h61v-85h-148v55q-20 -32 -58.5 -50.5t-87.5 -18.5q-72 0 -117.5 42.5t-45.5 114.5v198h-73v85h161v-259q0 -51 25 -73t61 -22q53 0 93.5 35.5t40.5 91.5v142h-83v85z" unicode="û"/>
<glyph glyph-name="udieresis" d="M451 576q0 -30 -20.5 -50t-49.5 -20t-49.5 20t-20.5 50t20.5 50t49.5 20t49.5 -20t20.5 -50zM251 576q0 -30 -20.5 -50t-49.5 -20t-49.5 20t-20.5 50t20.5 50t49.5 20t49.5 -20t20.5 -50zM320 426h171v-341h61v-85h-148v55q-20 -32 -58.5 -50.5t-87.5 -18.5 q-72 0 -117.5 42.5t-45.5 114.5v198h-73v85h161v-259q0 -51 25 -73t61 -22q53 0 93.5 35.5t40.5 91.5v142h-83v85z" unicode="ü"/>
<glyph glyph-name="yacute" d="M373 691l66 -94l-192 -116l-46 65zM352 -188h-276v84h120l46 98l-166 347h-53v85h209v-85h-57l115 -247l114 247h-56v85h209v-85h-55l-212 -445h62v-84z" unicode="ý"/>
<glyph glyph-name="thorn" d="M451 213q0 62 -38.5 103t-97.5 41t-99.5 -39t-40.5 -99v-12q0 -60 40.5 -99t99.5 -39t97.5 41t38.5 103zM87 531h-61v85h149v-242q53 66 152 66q93 0 154 -64t61 -163t-61 -163t-154 -64q-99 0 -152 66v-155h94v-85h-243v85h61v634z" unicode="þ"/>
<glyph glyph-name="OE" d="M276 85v410h-13q-75 0 -116.5 -58.5t-41.5 -146.5t41.5 -146.5t116.5 -58.5h13zM9 290q0 130 70 210t181 80h306v-179h-87v94h-114v-166h50v30h78v-142h-78v30h-50v-162h119v82h87v-167h-311q-111 0 -181 80.5t-70 209.5z" unicode="Œ"/>
<glyph glyph-name="oe" d="M338 256h137q-2 45 -20 73.5t-42 28.5q-31 0 -51 -28.5t-24 -73.5zM246 213q0 62 -20 102t-51 40t-51 -40t-20 -102t20 -102t51 -40t51 40t20 102zM507 120l54 -58q-58 -76 -142 -76q-87 0 -129 76q-36 -76 -115 -76q-71 0 -114.5 62t-43.5 165t43.5 165t114.5 62 q76 0 118 -77q42 77 120 77q71 0 113.5 -67t42.5 -176v-15h-235q4 -52 27.5 -83t59.5 -31q49 0 86 52z" unicode="œ"/>
<glyph glyph-name="Scaron" d="M424 153q0 42 -33 62t-107 39q-48 12 -79 23.5t-63.5 32t-48.5 52.5t-16 76q0 79 53.5 117.5t127.5 38.5q100 0 143 -62v48h86v-199h-79q-6 50 -44 88.5t-103 38.5q-39 0 -66 -15.5t-27 -50.5q0 -23 10.5 -40t34.5 -29t43.5 -18.5t55.5 -16.5q33 -9 49 -14t45 -16t44 -23 t32.5 -30t25 -43t7.5 -56q0 -81 -53.5 -125.5t-138.5 -44.5q-57 0 -100.5 19t-64.5 48v-53h-86v212h79q5 -56 51 -98t115 -42q47 0 77 20t30 61zM271 631l-144 127l53 63l91 -80l91 80l53 -63z" unicode="Š"/>
<glyph glyph-name="scaron" d="M278 487l-144 127l53 63l91 -80l91 80l53 -63zM415 111q0 13 -8.5 23t-29 17t-36.5 11t-48 10q-39 7 -58.5 11.5t-52.5 16.5t-50 25t-30.5 36t-13.5 53q0 61 47 93.5t117 32.5q89 0 140 -49v35h83v-147h-74q-5 37 -46.5 59.5t-98.5 22.5q-77 0 -77 -44q0 -13 9.5 -23 t32.5 -17t39.5 -10.5t52.5 -10.5q41 -8 69.5 -16t59.5 -24t47.5 -41.5t16.5 -60.5q0 -60 -47.5 -94t-125.5 -34q-112 0 -166 53v-39h-83v154h74q5 -41 57.5 -65t114.5 -24q85 0 85 46z" unicode="š"/>
<glyph glyph-name="Ydieresis" d="M460 716q0 -30 -20.5 -50t-49.5 -20t-49.5 20t-20.5 50t20.5 50t49.5 20t49.5 -20t20.5 -50zM260 716q0 -30 -20.5 -50t-49.5 -20t-49.5 20t-20.5 50t20.5 50t49.5 20t49.5 -20t20.5 -50zM345 580h218v-85h-49l-178 -266v-144h123v-85h-338v85h123v144l-178 266h-49v85 h218v-85h-59l116 -179l116 179h-63v85z" unicode="Ÿ"/>
<glyph glyph-name="circumflex" d="M146 550l144 127l144 -127l-53 -63l-91 80l-91 -80z" unicode="ˆ"/>
<glyph glyph-name="tilde" d="M380 601l71 -24q-2 -32 -30.5 -62t-69.5 -30q-33 0 -66.5 21.5t-47.5 21.5q-15 0 -25.5 -10.5t-12.5 -26.5l-71 24q2 32 30.5 62t69.5 30q33 0 66.5 -21.5t47.5 -21.5q15 0 25.5 10.5t12.5 26.5z" unicode="˜"/>
<glyph glyph-name="pi" d="M516 85v-85h-156v341h-145v-256h48v-85h-184v85h48v256h-68v85h457v-85h-68v-256h68z" unicode="π"/>
<glyph glyph-name="pi" d="M516 85v-85h-156v341h-145v-256h48v-85h-184v85h48v256h-68v85h457v-85h-68v-256h68z" unicode="ϖ"/>
<glyph glyph-name="endash" d="M470 316v-92h-360v92h360z" unicode="–"/>
<glyph glyph-name="emdash" d="M521 316v-92h-462v92h462z" unicode="—"/>
<glyph glyph-name="quoteleft" d="M176 616h152l75 -234h-98z" unicode="‘"/>
<glyph glyph-name="quotesinglbase" d="M251 102h152l-129 -234h-97z" unicode="‚"/>
<glyph glyph-name="quotedblleft" d="M64 616h152l75 -234h-98zM289 616h152l75 -234h-98z" unicode="“"/>
<glyph glyph-name="quotedblright" d="M364 616h152l-129 -234h-97zM139 616h152l-129 -234h-97z" unicode="”"/>
<glyph glyph-name="dagger" d="M122 358v85h124v173h88v-173h124v-85h-124v-412h-88v412h-124z" unicode="†"/>
<glyph glyph-name="daggerdbl" d="M458 217v-85h-124v-186h-88v186h-124v85h124v141h-124v85h124v173h88v-173h124v-85h-124v-141h124z" unicode="‡"/>
<glyph glyph-name="ellipsis" d="M217 60q0 32 20.5 52.5t52.5 20.5t52.5 -20.5t20.5 -52.5t-20.5 -52.5t-52.5 -20.5t-52.5 20.5t-20.5 52.5zM32 60q0 32 21 52.5t52 20.5t52 -20.5t21 -52.5t-21 -52.5t-52 -20.5t-52 20.5t-21 52.5zM402 60q0 32 21 52.5t52 20.5t52 -20.5t21 -52.5t-21 -52.5t-52 -20.5 t-52 20.5t-21 52.5z" unicode="…"/>
<glyph glyph-name="perthousand" d="M517 83q0 15 -10.5 26t-24.5 11t-24.5 -11t-10.5 -26t10.5 -26t24.5 -11t24.5 11t10.5 26zM576 83q0 -40 -27.5 -67t-66.5 -27t-66.5 27t-27.5 67t27.5 67t66.5 27t66.5 -27t27.5 -67zM301 83q0 15 -10.5 26t-24.5 11t-24.5 -11t-10.5 -26t10.5 -26t24.5 -11t24.5 11 t10.5 26zM360 83q0 -40 -27.5 -67t-66.5 -27t-66.5 27t-27.5 67t27.5 67t66.5 27t66.5 -27t27.5 -67zM103 498q0 -15 10.5 -26t24.5 -11t24.5 11t10.5 26t-10.5 26t-24.5 11t-24.5 -11t-10.5 -26zM44 498q0 40 27.5 67t66.5 27t66.5 -27t27.5 -67t-27.5 -67t-66.5 -27 t-66.5 27t-27.5 67zM401 564l-346 -582l-53 34l346 582z" unicode="‰"/>
<glyph glyph-name="guilsinglleft" d="M414 343l-127 -126l127 -126l-63 -62l-186 188l186 188z" unicode="‹"/>
<glyph glyph-name="guilsinglright" d="M293 217l-127 126l63 62l186 -188l-186 -188l-63 62z" unicode="›"/>
<glyph glyph-name="fraction" d="M553 556l-471 -577l-54 45l471 578z" unicode="⁄"/>
<glyph glyph-name="Euro" d="M23 390h61q23 94 86.5 149t151.5 55q43 0 80.5 -19t52.5 -47v52h86v-206h-79q-6 58 -45 95.5t-93 37.5q-52 0 -88 -31.5t-53 -85.5h169l-21 -78h-161q-1 -9 -1 -23q0 -15 1 -24h153l-21 -78h-117q39 -114 143 -114q51 0 83.5 27t59.5 74l81 -47q-26 -54 -84.5 -97.5 t-139.5 -43.5q-89 0 -154 54t-89 147h-62v78h51q-1 9 -1 24q0 13 1 23h-51v78z" unicode="€"/>
<glyph glyph-name="trademark" d="M284 580h83l53 -134l53 134h81v-50h-23v-178h23v-50h-106v50h34v143l-41 -99h-44l-41 99v-143h34v-50h-106v50h23v178h-23v50zM258 580v-93h-48v44h-41v-181h54v-50h-162v50h54v181h-41v-44h-48v93h232z" unicode="™"/>
<glyph glyph-name="partialdiff" d="M280 283q-55 0 -84.5 -34.5t-29.5 -80.5q0 -44 24.5 -71t66.5 -27q61 0 99.5 46t41.5 93q-11 32 -45.5 53t-72.5 21zM182 471l-64 54q60 69 155 69q102 0 162 -83t60 -218q0 -56 -14.5 -109t-42 -98t-75.5 -72.5t-108 -27.5q-86 0 -134.5 49.5t-48.5 129.5q0 81 54 141.5 t154 60.5q47 0 81.5 -21.5t45.5 -49.5v8q0 86 -33.5 146t-103.5 60q-49 0 -88 -39z" unicode="∂"/>
<glyph glyph-name="product" d="M392 85v410h-204v-410h47v-85h-190v85h51v410h-73v85h534v-85h-73v-410h51v-85h-190v85h47z" unicode="∏"/>
<glyph glyph-name="summation" d="M72 487v93h414v-171h-88v86h-221l140 -205l-140 -205h232v86h88v-171h-425v93l134 197z" unicode="∑"/>
<glyph glyph-name="minus" d="M68 318h444v-85h-444v85z" unicode="−"/>
<glyph glyph-name="radical" d="M286 0h-114l-70 306h-71v85h143l64 -289l233 528h94z" unicode="√"/>
<glyph glyph-name="infinity" d="M111 275q0 -26 15 -43t39 -17q41 0 80 60q-43 60 -80 60q-24 0 -39 -17t-15 -43zM469 275q0 26 -15 43t-39 17q-39 0 -80 -60q37 -60 80 -60q24 0 39 17t15 43zM556 275q0 -65 -40 -104.5t-96 -39.5q-40 0 -69.5 20.5t-60.5 62.5q-31 -42 -60.5 -62.5t-69.5 -20.5 q-56 0 -96 39.5t-40 104.5t40 104.5t96 39.5q40 0 69.5 -20.5t60.5 -62.5q31 42 60.5 62.5t69.5 20.5q56 0 96 -39.5t40 -104.5z" unicode="∞"/>
<glyph glyph-name="approxequal" d="M441 250l80 -24q-3 -47 -41.5 -89t-98.5 -42q-36 0 -70.5 18.5t-62.5 37t-49 18.5q-44 0 -60 -68l-80 24q3 47 41.5 89t98.5 42q46 0 102.5 -37t79.5 -37q45 0 60 68zM441 450l80 -24q-3 -47 -41.5 -89t-98.5 -42q-36 0 -70.5 18.5t-62.5 37t-49 18.5q-44 0 -60 -68 l-80 24q3 47 41.5 89t98.5 42q46 0 102.5 -37t79.5 -37q45 0 60 68z" unicode="≈"/>
<glyph glyph-name="notequal" d="M131 75l40 70h-103v85h152l52 90h-204v85h253l65 111l65 -40l-41 -71h102v-85h-152l-52 -90h204v-85h-253l-63 -110z" unicode="≠"/>
<glyph glyph-name="lessequal" d="M67 130h444v-85h-444v85zM480 179l-425 198l425 198l36 -78l-262 -120l262 -120z" unicode="≤"/>
<glyph glyph-name="greaterequal" d="M69 130h444v-85h-444v85zM525 377l-425 -198l-36 78l262 120l-262 120l36 78z" unicode="≥"/>
<glyph glyph-name="lozenge" d="M290 75l116 215l-116 214l-116 -214zM348 0h-116l-158 290l158 290h116l158 -290z" unicode="◊"/>
</font>
</defs>
</svg>
