<?xml version="1.0" encoding="UTF-8" standalone="no"?>
<svg width="27px" height="24px" viewBox="0 0 27 24" version="1.1" xmlns="http://www.w3.org/2000/svg" xmlns:xlink="http://www.w3.org/1999/xlink">
    <!-- Generator: Sketch 3.8.3 (29802) - http://www.bohemiancoding.com/sketch -->
    <title>icon3</title>
    <desc>Created with Sketch.</desc>
    <defs></defs>
    <g id="Home" stroke="none" stroke-width="1" fill="none" fill-rule="evenodd">
        <g id="iPhone-6-Plus" transform="translate(-125.000000, -959.000000)">
            <g id="card-3" transform="translate(57.908940, 923.422609)">
                <g id="ic_developer_board_black_24px" transform="translate(64.927829, 31.980522)">
                    <g id="icon3">
                        <path d="M28.5356328,11.6595652 L28.5356328,9.06855072 L25.9414844,9.06855072 L25.9414844,6.47753623 C25.9414844,5.05247826 24.7741176,3.88652174 23.3473359,3.88652174 L5.18829687,3.88652174 C3.76151523,3.88652174 2.59414844,5.05247826 2.59414844,6.47753623 L2.59414844,24.6146377 C2.59414844,26.0396957 3.76151523,27.2056522 5.18829687,27.2056522 L23.3473359,27.2056522 C24.7741176,27.2056522 25.9414844,26.0396957 25.9414844,24.6146377 L25.9414844,22.0236232 L28.5356328,22.0236232 L28.5356328,19.4326087 L25.9414844,19.4326087 L25.9414844,16.8415942 L28.5356328,16.8415942 L28.5356328,14.2505797 L25.9414844,14.2505797 L25.9414844,11.6595652 L28.5356328,11.6595652 L28.5356328,11.6595652 Z M23.3473359,24.6146377 L5.18829687,24.6146377 L5.18829687,6.47753623 L23.3473359,6.47753623 L23.3473359,24.6146377 L23.3473359,24.6146377 Z M7.78244531,16.8415942 L14.2678164,16.8415942 L14.2678164,22.0236232 L7.78244531,22.0236232 L7.78244531,16.8415942 Z M15.5648906,9.06855072 L20.7531875,9.06855072 L20.7531875,12.9550725 L15.5648906,12.9550725 L15.5648906,9.06855072 Z M7.78244531,9.06855072 L14.2678164,9.06855072 L14.2678164,15.546087 L7.78244531,15.546087 L7.78244531,9.06855072 Z M15.5648906,14.2505797 L20.7531875,14.2505797 L20.7531875,22.0236232 L15.5648906,22.0236232 L15.5648906,14.2505797 Z" id="Shape" fill="#F75A91"></path>
                        <path d="M0,0 L31.1297812,0 L31.1297812,31.0921739 L0,31.0921739 L0,0 Z M0,0 L31.1297812,0 L31.1297812,31.0921739 L0,31.0921739 L0,0 Z" id="Shape"></path>
                    </g>
                </g>
            </g>
        </g>
    </g>
</svg>