<?xml version="1.0" encoding="UTF-8" standalone="no"?>
<svg width="25px" height="24px" viewBox="0 0 25 24" version="1.1" xmlns="http://www.w3.org/2000/svg" xmlns:xlink="http://www.w3.org/1999/xlink">
    <!-- Generator: Sketch 3.8.3 (29802) - http://www.bohemiancoding.com/sketch -->
    <title>icon2</title>
    <desc>Created with Sketch.</desc>
    <defs></defs>
    <g id="Home" stroke="none" stroke-width="1" fill="none" fill-rule="evenodd">
        <g id="iPhone-6-Plus" transform="translate(-304.000000, -798.000000)">
            <g id="card-2" transform="translate(234.125138, 763.520000)">
                <g id="Group-2" transform="translate(36.802849, 31.092174)">
                    <g id="ic_gesture_black_24px" transform="translate(29.903825, 0.000000)">
                        <g id="icon2">
                            <path d="M5.95357066,8.92604493 C6.86152262,8.00623478 7.76947457,7.17711014 8.17156758,7.34552609 C8.82010469,7.60462754 8.17156758,8.67989855 7.78244531,9.3146971 C7.45817676,9.85881014 4.07281305,14.3542203 4.07281305,17.4893478 C4.07281305,19.1475971 4.69540867,20.5208348 5.8108925,21.3499594 C6.78369816,22.0754435 8.06780164,22.2956797 9.23516844,21.9458928 C10.6230378,21.5442855 11.7644632,20.1321826 13.2042155,18.3573377 C14.7736753,16.4270319 16.8749356,13.9007928 18.4962784,13.9007928 C20.6105093,13.9007928 20.6364508,15.2092551 20.779129,16.2197507 C15.8761884,17.0488754 13.8008697,20.9742623 13.8008697,23.1766246 C13.8008697,25.378987 15.6686566,27.179742 17.9644779,27.179742 C20.0787089,27.179742 23.5289263,25.4567174 24.047756,19.2771478 L27.2385586,19.2771478 L27.2385586,16.0383797 L24.0347853,16.0383797 C23.8402241,13.9007928 22.6209744,10.5972493 18.8075762,10.5972493 C15.8891592,10.5972493 13.3858059,13.0716681 12.4000295,14.2764899 C11.6477265,15.2222101 9.72805664,17.4893478 9.42972957,17.8002696 C9.10546101,18.1889217 8.5477191,18.8884957 7.98997719,18.8884957 C7.40629379,18.8884957 7.05608375,17.8132246 7.52303047,16.4011217 C7.97700644,14.9890188 9.33893437,12.695971 9.92261777,11.8409362 C10.9343357,10.364058 11.6088143,9.35356232 11.6088143,7.59167246 C11.6088143,4.78042174 9.48161254,3.88652174 8.35315797,3.88652174 C6.64102,3.88652174 5.14938465,5.18202899 4.82511609,5.5059058 C4.35816937,5.97228841 3.96904711,6.36094058 3.68369078,6.71072754 L5.95357066,8.92604493 L5.95357066,8.92604493 Z M18.0033902,24.0316594 C17.6012971,24.0316594 17.0435552,23.6948275 17.0435552,23.0988942 C17.0435552,22.3215899 17.9904194,20.2487783 20.7661582,19.5232942 C20.377036,23.0082087 18.9113421,24.0316594 18.0033902,24.0316594 L18.0033902,24.0316594 Z" id="Shape" fill="#F75A91"></path>
                            <polygon id="Shape" points="0 0 31.1297812 0 31.1297812 31.0921739 0 31.0921739"></polygon>
                        </g>
                    </g>
                </g>
            </g>
        </g>
    </g>
</svg>